:version 1.10
:name ASF
:units
  mass 1
  length 1
  angle deg
:documentation
  ASF file generated by Kaydara
:root
  axis xyz
  order  tx ty tz rx ry rz
  position 0 0 0
  orientation 0 0 0
:bonedata
  begin
    id 1
    name RightUpLegDummy
    direction -0.718183 -0.695806 0.00816078
    length 4.904
    axis 0 0 0 xyz
  end
  begin
    id 2
    name RightUpLeg
    direction 3.53373e-006 -0.995788 0.0916898
    length 17.4976
    axis -3.49089 -0.000906625 0.000286804 xyz
    dof rx ry rz
  end
  begin
    id 3
    name RightLeg
    direction 0.00371092 -0.995096 -0.0988419
    length 16.5821
    axis 3.68512 0.0193738 -0.131023 xyz
    dof rx ry rz
  end
  begin
    id 4
    name RightFoot
    direction 0.00079151 -0.46099 0.887405
    length 3.77069
    axis 4.81691e-005 -0.120479 -0.188788 xyz
    dof rx ry rz
  end
  begin
    id 5
    name RightToes
    direction 0 0 0
    length 0
    axis 0 0 0 xyz
    dof rx ry rz
  end
  begin
    id 6
    name SpineDummy
    direction 8.3039e-015 1 4.57515e-016
    length 4.6813
    axis 0 0 0 xyz
  end
  begin
    id 7
    name Spine
    direction -3.15643e-008 0.999988 0.00495137
    length 10.1015
    axis -0.001389 0.000121418 2.40972e-006 xyz
    dof rx ry rz
  end
  begin
    id 8
    name Spine1
    direction 0 0 0
    length 0
    axis -0.001389 0.000121451 1.30017e-006 xyz
    dof rx ry rz
  end
  begin
    id 9
    name HEadDummy
    direction -1.99912e-008 0.999999 0.00127422
    length 3.43865
    axis -0.001389 0.000121451 1.30017e-006 xyz
  end
  begin
    id 10
    name HEad
    direction 0 0 0
    length 0
    axis 0 0 0 xyz
    dof rx ry rz
  end
  begin
    id 11
    name LeftShoulder1Dummy
    direction 0.998891 -0.0402509 -0.0244456
    length 3.5433
    axis -0.001389 0.000121451 1.30017e-006 xyz
  end
  begin
    id 12
    name LeftShoulder1
    direction 0.99951 -0.000327763 0.0313091
    length 4.05031
    axis -0.001389 0.000121451 1.30017e-006 xyz
    dof rx ry rz
  end
  begin
    id 13
    name LeftArm
    direction 0.998561 -0.00100056 -0.0536182
    length 10.3537
    axis -23.1894 0.134784 0.967509 xyz
    dof rx ry rz
  end
  begin
    id 14
    name LeftForeArm
    direction 0.998903 0.00866432 0.046012
    length 8.70632
    axis -9.91835 -0.06569 -0.177794 xyz
    dof rx ry rz
  end
  begin
    id 15
    name LeftHand
    direction 0 0 0
    length 0
    axis 0 0 0 xyz
    dof rx ry rz
  end
  begin
    id 16
    name RightShoulderDummy
    direction -0.998891 -0.0402509 -0.0244414
    length 3.5433
    axis -0.001389 0.000121451 1.30017e-006 xyz
  end
  begin
    id 17
    name RightShoulder
    direction -0.99951 -0.000327807 0.0313133
    length 4.05031
    axis 0.215806 0.000203643 -0.0068026 xyz
    dof rx ry rz
  end
  begin
    id 18
    name RightArm
    direction -0.998573 -0.000999564 -0.053403
    length 10.3947
    axis -23.2009 -0.134239 -0.964101 xyz
    dof rx ry rz
  end
  begin
    id 19
    name RightForeArm
    direction -0.998898 0.00868028 0.0461306
    length 8.68355
    axis -9.92322 0.0658061 0.178868 xyz
    dof rx ry rz
  end
  begin
    id 20
    name RightHand
    direction 0 0 0
    length 0
    axis 0 0 0 xyz
    dof rx ry rz
  end
  begin
    id 21
    name LeftUpLegDummy
    direction 0.718183 -0.695806 0.00816078
    length 4.904
    axis 0 0 0 xyz
  end
  begin
    id 22
    name LeftUpLeg
    direction -6.81752e-006 -0.995793 0.0916337
    length 17.4976
    axis -3.48766 0.00143442 -0.000524262 xyz
    dof rx ry rz
  end
  begin
    id 23
    name LeftLeg
    direction -0.00601358 -0.995091 -0.0987824
    length 16.5821
    axis 3.68178 -0.00654042 -0.000285133 xyz
    dof rx ry rz
  end
  begin
    id 24
    name LeftFoot
    direction -0.00417578 -0.460984 0.887399
    length 3.77069
    axis 1.87233e-006 4.66016e-005 -8.6538e-006 xyz
    dof rx ry rz
  end
  begin
    id 25
    name LeftToes
    direction 0 0 0
    length 0
    axis 0 0 0 xyz
    dof rx ry rz
  end
:hierarchy
  begin
    root RightUpLegDummy SpineDummy LeftUpLegDummy
    RightUpLegDummy RightUpLeg
    RightUpLeg RightLeg
    RightLeg RightFoot
    RightFoot RightToes
    SpineDummy Spine
    Spine Spine1
    Spine1 HEadDummy LeftShoulder1Dummy RightShoulderDummy
    HEadDummy HEad
    LeftShoulder1Dummy LeftShoulder1
    LeftShoulder1 LeftArm
    LeftArm LeftForeArm
    LeftForeArm LeftHand
    RightShoulderDummy RightShoulder
    RightShoulder RightArm
    RightArm RightForeArm
    RightForeArm RightHand
    LeftUpLegDummy LeftUpLeg
    LeftUpLeg LeftLeg
    LeftLeg LeftFoot
    LeftFoot LeftToes
  end

:SAMPLES-PER-SECOND 30
:FULLY-SPECIFIED
:DEGREES
240
root  13.173 40.8546 7.77611 148.329 86.5224 144.469
RightUpLeg  -5.35928 -10.1029 -9.32544
RightLeg  2.4396 -10.3675 3.3491
RightFoot  3.09899 -0.264993 2.25744
RightToes  0.000481921 0.542163 -0.142578
Spine  12.2166 2.01053 8.68485
Spine1  -7.73147 4.25474 -12.8194
HEad  19.4562 -17.8062 4.91152
LeftShoulder1  6.07026 -10.332 -37.7283
LeftArm  0.860779 23.5509 -35.4408
LeftForeArm  177.682 -61.3114 -162.642
LeftHand  -0.25398 0.0180481 5.50724
RightShoulder  1.03924 1.97037 11.7524
RightArm  -9.46638 29.018 59.8742
RightForeArm  37.8933 73.4918 43.6728
RightHand  -0.686181 0.904445 -11.9215
LeftUpLeg  -4.74616 4.93972 3.24584
LeftLeg  -0.562018 16.6553 -4.62419
LeftFoot  2.8344 0.200691 -1.7527
LeftToes  1.06247e-005 4.65869e-005 -8.65511e-006
241
root  13.3107 40.8355 7.90874 169.469 84.5697 166.126
RightUpLeg  -4.65943 -10.3242 -9.37626
RightLeg  3.73414 -12.2525 3.21176
RightFoot  2.0159 -0.23954 2.15949
RightToes  0.000481921 0.542163 -0.142578
Spine  11.7986 1.51307 4.70101
Spine1  -5.5983 2.90277 -7.06994
HEad  17.242 -17.1478 3.96188
LeftShoulder1  5.81378 -9.48277 -38.5731
LeftArm  0.924236 22.1259 -35.6711
LeftForeArm  177.608 -60.5559 -163.146
LeftHand  -0.25398 0.0180481 5.50724
RightShoulder  1.82807 3.4339 20.0006
RightArm  -9.85527 9.07211 54.7083
RightForeArm  151.051 70.1313 152.23
RightHand  -0.0547323 -4.37135 -2.15444
LeftUpLeg  -4.59248 4.79545 3.32958
LeftLeg  0.0132074 14.5188 -4.15003
LeftFoot  2.80821 0.193767 -1.69868
LeftToes  1.06247e-005 4.65869e-005 -8.65511e-006
242
root  13.417 40.8001 8.01695 170.552 82.8183 167.635
RightUpLeg  -4.53143 -10.6968 -9.61402
RightLeg  5.64408 -13.5572 2.83649
RightFoot  0.84769 -0.205042 1.97531
RightToes  0.000481921 0.542163 -0.142578
Spine  11.7929 0.757737 1.83584
Spine1  -4.18167 1.3651 -2.78149
HEad  15.0974 -14.3412 1.74676
LeftShoulder1  5.25824 -8.21019 -38.6725
LeftArm  0.84869 20.5069 -35.4369
LeftForeArm  178.584 -60.2183 -163.452
LeftHand  -0.25398 0.0180481 5.50724
RightShoulder  2.43908 3.99557 26.4971
RightArm  -11.4783 -9.74909 52.6639
RightForeArm  174.458 52.0067 168.188
RightHand  -0.0599529 -6.04027 6.79521
LeftUpLeg  -4.63591 4.72261 3.25278
LeftLeg  0.868228 12.8118 -3.8837
LeftFoot  2.60315 0.177034 -1.57674
LeftToes  1.06247e-005 4.65869e-005 -8.65511e-006
243
root  13.5071 40.7668 8.04591 172.413 81.0318 169.84
RightUpLeg  -4.22224 -11.1977 -9.87417
RightLeg  7.01997 -14.7853 2.55284
RightFoot  0.0239211 -0.213563 2.15195
RightToes  0.000481921 0.542163 -0.142578
Spine  11.6552 -0.876537 -1.17049
Spine1  -3.78003 -1.20761 1.58473
HEad  14.6802 -9.1601 -0.769292
LeftShoulder1  4.71463 -6.97969 -38.7392
LeftArm  -0.779521 20.9788 -35.0508
LeftForeArm  179.502 -59.4926 -163.986
LeftHand  -0.25398 0.0180481 5.50724
RightShoulder  2.71296 4.12011 29.6134
RightArm  -12.8696 -20.9071 50.5903
RightForeArm  175.535 45.4966 170.082
RightHand  -0.0428342 -5.32175 8.13
LeftUpLeg  -4.90058 4.70285 3.19766
LeftLeg  1.94695 11.0111 -3.67856
LeftFoot  2.2093 0.16089 -1.46723
LeftToes  1.06247e-005 4.65869e-005 -8.65511e-006
244
root  13.5679 40.7379 7.98129 172.052 80.95 169.952
RightUpLeg  -4.0458 -11.7245 -10.0113
RightLeg  8.00542 -14.2536 2.14177
RightFoot  -0.401004 -0.251226 2.59927
RightToes  0.000481921 0.542163 -0.142578
Spine  11.4544 -2.28392 -3.65598
Spine1  -3.81064 -3.3024 4.59476
HEad  16.036 -4.19132 -2.07971
LeftShoulder1  4.62864 -6.66777 -39.231
LeftArm  -3.46552 22.9937 -34.3328
LeftForeArm  179.024 -58.3271 -164.643
LeftHand  -0.25398 0.0180481 5.50724
RightShoulder  2.63417 4.06284 28.8011
RightArm  -12.0304 -23.1404 48.2086
RightForeArm  165.729 47.4331 168.63
RightHand  -0.0452174 -5.21693 2.02346
LeftUpLeg  -4.70722 4.82299 3.17771
LeftLeg  2.85382 10.7641 -3.56927
LeftFoot  1.62062 0.154752 -1.44932
LeftToes  1.06247e-005 4.65869e-005 -8.65511e-006
245
root  13.5953 40.7145 7.87044 165.204 83.411 163.669
RightUpLeg  -4.42983 -11.7935 -10.0201
RightLeg  8.80304 -11.5663 1.4549
RightFoot  -0.56405 -0.275278 2.87464
RightToes  0.000481921 0.542163 -0.142578
Spine  11.1191 -2.21615 -3.99835
Spine1  -3.71828 -3.16012 3.98216
HEad  17.9712 -2.14196 -1.57607
LeftShoulder1  4.98556 -7.37624 -39.555
LeftArm  -5.36933 24.0724 -33.4252
LeftForeArm  178.006 -57.4993 -165.028
LeftHand  -0.25398 0.0180481 5.50724
RightShoulder  2.35495 3.68573 26.6885
RightArm  -11.0649 -21.0879 46.1534
RightForeArm  155.466 51.2919 166.371
RightHand  -0.061304 -4.73123 -5.63963
LeftUpLeg  -3.72819 5.09546 3.07292
LeftLeg  3.10533 12.9585 -3.67224
LeftFoot  1.03789 0.153007 -1.469
LeftToes  1.06247e-005 4.65869e-005 -8.65511e-006
246
root  13.6095 40.7011 7.7566 143.278 86.3972 142.283
RightUpLeg  -4.84691 -11.1925 -10.0379
RightLeg  9.07835 -8.68282 0.95116
RightFoot  -0.556106 -0.271036 2.83372
RightToes  0.000481921 0.542163 -0.142578
Spine  10.6917 -1.1983 -2.30113
Spine1  -3.36074 -1.51508 0.883121
HEad  19.124 -2.39431 -0.395738
LeftShoulder1  5.34299 -8.20831 -39.3712
LeftArm  -5.80151 23.3225 -32.849
LeftForeArm  177.819 -57.2335 -165.158
LeftHand  -0.25398 0.0180481 5.50724
RightShoulder  2.15878 3.2133 26.0543
RightArm  -11.1733 -18.8153 43.4012
RightForeArm  149.874 52.8402 165.233
RightHand  -0.162233 -3.77614 -10.4257
LeftUpLeg  -2.43907 5.36371 2.88671
LeftLeg  2.84208 16.0067 -3.92421
LeftFoot  0.625551 0.143955 -1.40972
LeftToes  1.06247e-005 4.65869e-005 -8.65511e-006
247
root  13.6253 40.7028 7.64086 102.117 87.7258 101.527
RightUpLeg  -4.78291 -10.589 -10.1411
RightLeg  8.65794 -6.80284 1.00051
RightFoot  -0.328766 -0.263771 2.71132
RightToes  0.000481921 0.542163 -0.142578
Spine  10.3386 -0.53862 -0.195129
Spine1  -2.98644 -0.298031 -1.60952
HEad  19.3412 -2.33166 -0.144224
LeftShoulder1  5.50784 -8.5416 -39.4764
LeftArm  -5.87236 22.2139 -32.7086
LeftForeArm  178.229 -57.0289 -165.302
LeftHand  -0.25398 0.0180481 5.50724
RightShoulder  2.15809 3.14636 26.3721
RightArm  -10.7409 -16.3702 40.9827
RightForeArm  147.757 52.8012 165.093
RightHand  -0.314198 -2.54323 -12.3363
LeftUpLeg  -1.51611 5.53314 2.77311
LeftLeg  2.64316 18.1782 -4.08454
LeftFoot  0.33281 0.128162 -1.2737
LeftToes  1.06247e-005 4.65869e-005 -8.65511e-006
248
root  13.6384 40.7113 7.52623 63.3733 87.5899 63.0192
RightUpLeg  -4.51791 -10.3538 -10.2295
RightLeg  7.95567 -5.51001 1.36938
RightFoot  0.0671761 -0.271637 2.72219
RightToes  0.000481921 0.542163 -0.142578
Spine  10.1307 -0.438811 1.32963
Spine1  -2.91061 0.0586838 -2.58338
HEad  19.3144 -1.15317 -0.855021
LeftShoulder1  5.62711 -8.62835 -40.0983
LeftArm  -6.5233 22.1108 -32.8882
LeftForeArm  178.616 -56.6115 -165.557
LeftHand  -0.25398 0.0180481 5.50724
RightShoulder  2.16818 3.30525 25.739
RightArm  -8.89359 -13.5593 41.3399
RightForeArm  147.724 53.1516 164.915
RightHand  -0.436162 -1.55719 -12.9869
LeftUpLeg  -1.11215 5.64917 2.78369
LeftLeg  2.81559 19.5296 -4.02793
LeftFoot  0.0339375 0.118474 -1.19238
LeftToes  1.06247e-005 4.65869e-005 -8.65511e-006
249
root  13.6451 40.7154 7.44493 41.4702 86.9263 41.1977
RightUpLeg  -4.44715 -10.263 -10.2512
RightLeg  7.44076 -4.44895 1.68619
RightFoot  0.385607 -0.28713 2.82024
RightToes  0.000481921 0.542163 -0.142578
Spine  10.0587 -0.376164 2.3652
Spine1  -3.09106 0.273237 -3.16054
HEad  19.2648 -0.00297223 -1.3345
LeftShoulder1  5.7357 -8.79677 -40.3355
LeftArm  -7.45752 22.6215 -33.5151
LeftForeArm  179.078 -56.0091 -165.908
LeftHand  -0.25398 0.0180481 5.50724
RightShoulder  2.10918 3.33869 24.6817
RightArm  -6.66357 -12.2825 43.8071
RightForeArm  150.894 53.5113 164.967
RightHand  -0.470815 -1.2087 -12.8999
LeftUpLeg  -1.00226 5.75674 2.82717
LeftLeg  3.12971 20.5998 -3.91904
LeftFoot  -0.247399 0.115533 -1.1735
LeftToes  1.06247e-005 4.65869e-005 -8.65511e-006
